<?xml version="1.0" standalone="no"?>
    <svg xmlns="http://www.w3.org/2000/svg" class="icon" viewBox="0 0 1024 1024">
      <path d="M955.961394 671.334915c-2.89391-15.618723-12.895705-25.696242-25.768897-25.696242h-1.791809c-24.549116-0.041956-44.466748-19.953448-44.520982-44.490284 0-6.51846 2.788509-14.435781 3.888563-16.889668 6.079462-14.506389 0.973164-31.266098-12.181437-39.898709l-52.051493-28.829606a35.167964 35.167964 0 0 0-38.10076 7.607259c-6.501064 6.65763-23.75196 20.473287-35.623335 20.473287-11.9471 0-29.347398-14.113439-35.863812-20.918426a35.107589 35.107589 0 0 0-37.949311-7.91118l-0.953721 0.444115-53.04103 29.135574-1.270947 0.750084c-12.386098 8.777921-16.942881 25.035186-10.980075 38.985919a51.467185 51.467185 0 0 1 3.888563 17.053398c-0.048095 24.537859-19.964704 44.448328-44.527122 44.490284h-2.083452c-12.549827 0-22.582321 10.077519-25.550932 25.696242-0.468674 2.39556-4.322445 23.906479-4.322445 41.387619 0 17.475 3.852748 38.98592 4.322445 41.374316 2.968611 15.70161 13.001105 25.698289 25.849738 25.698289h1.785669c24.579815 0 44.527123 20.023032 44.527123 44.589544a50.444902 50.444902 0 0 1-3.888564 16.820084c-6.048763 14.476713-0.960885 31.226189 12.09241 39.882336l51.084468 28.543079c13.230326 5.499248 28.462239 2.295276 38.324864-8.075932 6.365988-6.863315 24.209378-21.820981 36.461423-21.820982 12.32777 0 30.03199 14.957667 36.620036 22.27226a34.638915 34.638915 0 0 0 39.576367 7.694239l51.68208-28.612664 1.270946-0.744967c12.374842-8.79634 16.959254-25.035186 10.992355-38.996153a51.956326 51.956326 0 0 1-3.977591-16.960277c0-24.648376 19.970844-44.589544 44.520983-44.589544h2.101871c12.562107 0 22.564925-10.079566 25.463951-25.615401 0.086981-0.222057 4.497431-23.143093 4.497431-41.456181 0.001023-17.416671-3.976568-38.996153-4.503571-41.391712zM747.951897 791.231609c-43.48949-1.904373-77.199243-38.669718-75.30715-82.164325 1.785669-40.836057 34.482349-73.508177 75.30715-75.299986 43.464931 1.902326 77.18594 38.692231 75.281567 82.163301-1.768273 40.818661-34.463929 73.519434-75.281567 75.30101zM616.025215 481.972103c-130.74681 71.048149-179.160449 234.632855-108.130719 365.381711a270.215258 270.215258 0 0 0 28.795836 42.697451H140.124388c-41.762149 0-76.032674-25.76685-76.032674-67.744917v-18.302854c0-38.557154 28.39163-72.67623 64.542992-85.683475l154.999166-69.086471s41.965787-12.830213 53.467749-25.76685c7.705496-8.591679 10.013051-36.901445 0.303922-55.43659-9.710153-18.681478-88.131223-120.775714-88.131223-206.528774-0.082888-138.207735 90.75498-250.310929 202.873524-250.310929 112.047935 0 202.944132 112.049982 202.944132 250.310929 0 40.930201-18.448164 83.657328-39.219234 120.400161l0.152473 0.070608z m0 0"  ></path>
    </svg>