<?xml version="1.0" standalone="no"?>
    <svg xmlns="http://www.w3.org/2000/svg" class="icon" viewBox="0 0 1024 1024">
      <path d="M882.610806 955.264523H101.484346c-19.766183 0-35.802414-16.036231-35.802414-35.802414V138.313136c0-19.766183 16.036231-35.802414 35.802414-35.802414h468.671169c19.766183 0 35.802414 16.036231 35.802414 35.802414s-16.036231 35.802414-35.802414 35.802414h-432.868755v709.544145h709.521632V450.767404c0-19.766183 16.036231-35.802414 35.802414-35.802414s35.802414 16.036231 35.802414 35.802414v468.694705c0 19.766183-16.036231 35.802414-35.802414 35.802414z"  ></path><path d="M492.047576 564.677756c-9.160637 0-18.320251-3.496637-25.313526-10.488888-13.985526-13.985526-13.985526-36.641525 0-50.627051L896.363018 73.933873c13.985526-13.985526 36.641525-13.985526 50.627051 0 13.985526 13.985526 13.985526 36.641525 0 50.627051L517.361101 554.188868c-6.992251 6.993275-16.152888 10.488889-25.313525 10.488888z"  ></path>
    </svg>