<?xml version="1.0" standalone="no"?>
    <svg xmlns="http://www.w3.org/2000/svg" class="icon" viewBox="0 0 1024 1024">
      <path d="M845.847507 382.237611c-30.800493 0-55.773258 24.945135-55.773257 55.773258v379.300722H176.570461V203.807802h379.245464c30.800493 0 55.773258-24.945135 55.773258-55.773257s-24.972764-55.773258-55.773258-55.773258H120.797203c-30.800493 0-55.773258 24.945135-55.773257 55.773258v725.04928c0 30.828123 24.972764 55.773258 55.773257 55.773258h725.049281c30.800493 0 55.773258-24.945135 55.773258-55.773258V438.010869c0.001023-30.827099-24.971741-55.773258-55.772235-55.773258z"  ></path><path d="M941.053869 108.60144c-21.786189-21.786189-57.08002-21.786189-78.866208 0l-390.411781 390.411781c-21.786189 21.786189-21.786189 57.08002 0 78.866209 10.893094 10.893094 25.163099 16.340153 39.433104 16.340153 14.270005 0 28.54001-5.447059 39.433105-16.340153l390.41178-390.411781c21.786189-21.786189 21.786189-57.08002 0-78.866209z"  ></path>
    </svg>