<?xml version="1.0" standalone="no"?>
    <svg xmlns="http://www.w3.org/2000/svg" class="icon" viewBox="0 0 1024 1024">
      <path d="M635.259278 349.425298H391.109676v203.457831h244.149602V349.425298zM187.651844 105.274672h651.066289c67.419506 0 122.075313 54.654784 122.075313 122.075313v569.682747c0 67.420529-54.654784 122.075313-122.075313 122.075313H187.651844c-67.420529 0-122.075313-54.654784-122.075313-122.075313V227.349985c0-67.419506 54.654784-122.075313 122.075313-122.075313z m122.07429 732.449831V634.266671H146.960073v-81.383542h162.766061V349.425298H146.960073v447.607434c0 22.473851 18.21792 40.691771 40.691771 40.691771h122.07429z m325.533144 0V634.266671H391.109676v203.457832h244.149602z m244.149603-488.299205H716.64282v203.457831h162.766061v81.383542H716.64282v203.457832h122.075313c22.472827 0 40.691771-18.21792 40.691771-40.691771V349.425298z"  ></path>
    </svg>