<?xml version="1.0" standalone="no"?>
    <svg xmlns="http://www.w3.org/2000/svg" class="icon" viewBox="0 0 1024 1024">
      <path d="M799.633976 438.655552h-63.674205V289.940508c0-124.541481-100.791567-225.821165-224.795812-225.821165-124.020618 0-224.922702 101.278661-224.922703 225.830375v148.70481h-63.611783c-30.677697 0-55.54813 24.957415-55.54813 55.767118v407.16228c0 30.858822 24.870434 55.835679 55.54813 55.83568h577.063855c30.677697 0 55.479569-24.976858 55.479569-55.83568V494.422669c0-30.809703-24.859177-55.767118-55.547107-55.767117h0.008186z m-257.289877 269.964548v88.901772a7.352455 7.352455 0 0 1-7.281847 7.326873h-47.748491a7.372921 7.372921 0 0 1-7.336082-7.321756v-88.906889c-22.427802-11.522428-37.96466-34.615379-37.96466-61.677735 0-38.297234 30.956036-69.443605 69.092611-69.443605 38.194904 0 69.155033 31.141254 69.155033 69.433372 0.058328 27.072589-15.47853 50.16554-37.915541 61.677735v0.010233z m107.340727-269.964548H372.618533V293.627481c0-76.711126 62.21497-139.184993 138.594545-139.184993 76.382645 0 138.480958 62.473867 138.480957 139.184993v145.028071h-0.009209z m0 0"  ></path>
    </svg>