<?xml version="1.0" standalone="no"?>
    <svg xmlns="http://www.w3.org/2000/svg" class="icon" viewBox="0 0 1024 1024">
      <path d="M796.621363 397.893172V235.084133H552.408315l-162.809039-162.808016H63.981197v814.044174h407.022087v-90.449012H189.473329l102.509699-307.528072h541.955242l-11.553127 34.659381h95.341438l41.702798-125.108392h-162.808016z m-569.831127 0L154.431232 614.972233V162.725128h197.702757l136.317689 136.316666 26.491351 26.492374h191.229322v72.359004H226.790236z"  ></path><path d="M870.329085 804.987914c-23.997554 0-45.302789 11.526521-58.684564 29.338189L696.343495 776.481673a73.479525 73.479525 0 0 0 2.795673-20.136619 73.207325 73.207325 0 0 0-3.342118-21.955034l114.865097-57.626466c13.311167 18.569938 35.075867 30.668487 59.667961 30.668487 40.520879 0 73.362868-32.843012 73.362868-73.366961 0-40.518832-32.843012-73.361845-73.362868-73.361845-40.518832 0-73.366961 32.848129-73.366961 73.361845 0 2.806929 0.163729 5.568832 0.469698 8.29492l-121.149221 60.776202c-13.153578-12.492522-30.937616-20.159132-50.512441-20.159132-40.518832 0-73.361845 32.848129-73.361845 73.369007 0 40.518832 32.843012 73.366961 73.361845 73.366962 20.290115 0 38.653345-8.234545 51.931766-21.539573l119.94172 60.170405a74.864058 74.864058 0 0 0-0.687662 10.014074c0 40.518832 32.848129 73.366961 73.366961 73.366962 40.520879 0 73.369008-32.848129 73.369008-73.366962 0-40.521902-32.843012-73.370031-73.363891-73.370031z m0 0"  ></path>
    </svg>