<?xml version="1.0" standalone="no"?>
    <svg xmlns="http://www.w3.org/2000/svg" class="icon" viewBox="0 0 1024 1024">
      <path d="M796.915052 430.594969v-162.808017H552.702004L389.892965 104.977913H64.275909v814.044174H471.297996v-90.449012H189.767018l102.509698-307.528072h541.955243l-11.553127 34.659381h95.341438l41.702798-125.108392h-162.808016z m-569.831127 0L154.724921 647.674029V195.426925h197.702757L488.745367 331.74359l26.491351 26.492374h191.229322v72.359005H227.083925z"  ></path><path d="M765.03497 825.366034s-15.997346-4.990664-20.380166-10.023284c-2.938935-3.337002-3.817955-14.347776-0.11768-21.556969 3.703345-7.265474 33.595142-46.970778 33.595142-80.32135 0.031722-53.747111-34.593889-97.344049-77.330226-97.344049-42.919509 0-77.54512 43.596937-77.513398 97.349166 0 33.345456 29.892821 73.05076 33.595143 80.316233 3.700275 7.209192 2.822278 18.218944-0.116657 21.562085-4.383844 5.031597-20.38119 10.018168-20.38119 10.018168l-59.081606 26.868951c-13.778818 5.057179-24.601304 18.331507-24.601305 33.324989v7.118118c0 16.321734 13.063527 26.345018 28.980032 26.345018h238.054791c15.917528 0 28.980032-10.023284 28.980031-26.349111v-7.118118c0-14.993482-10.821463-28.262694-24.600281-33.319873l-59.08263-26.869974z"  ></path>
    </svg>