<?xml version="1.0" standalone="no"?>
    <svg xmlns="http://www.w3.org/2000/svg" class="icon" viewBox="0 0 1024 1024">
      <path d="M513.385557 64.644299c-247.255337 0-447.696462 200.440102-447.696462 447.696462s200.440102 447.696462 447.696462 447.696462 447.696462-200.440102 447.696461-447.696462-200.440102-447.696462-447.696461-447.696462z m2.689248 700.83274c0 13.735839-11.136641 24.871457-24.87248 24.871457-13.735839 0-24.87248-11.136641-24.872481-24.871457v-12.436241c0-13.735839 11.136641-24.87248 24.872481-24.87248 13.735839 0 24.87248 11.136641 24.87248 24.87248v12.436241z m131.987057-203.396434c0 13.735839-11.136641 24.871457-24.87248 24.871458H516.074805v92.565208c0 13.735839-11.136641 24.87248-24.87248 24.872481-13.735839 0-24.87248-11.136641-24.872481-24.872481V562.080605c0-13.735839 11.136641-24.87248 24.872481-24.87248h107.114576V378.188388H384.100028v133.262097c0 13.735839-11.136641 24.87248-24.87248 24.87248-13.735839 0-24.87248-11.136641-24.872481-24.87248V353.315908c0-13.735839 11.136641-24.87248 24.872481-24.872481h263.961834c13.735839 0 24.87248 11.136641 24.87248 24.872481v208.764697z"  ></path>
    </svg>