<?xml version="1.0" standalone="no"?>
    <svg xmlns="http://www.w3.org/2000/svg" class="icon" viewBox="0 0 1024 1024">
      <path d="M775.37241 400.288732c87.276762 0 158.01485-75.210959 158.014849-168.013575 0-92.789313-70.738088-168.000272-158.014849-168.000271-87.272669 0-158.023036 75.223239-158.023037 168.000271 0 6.427386 0.352017 12.752442 1.011027 18.99461L357.420389 390.44862c-28.330232-28.607548-66.635653-46.164413-108.796892-46.164413-87.272669 0-158.01178 75.223239-158.01178 168.015622 0 92.790336 70.738088 168.013575 158.01178 168.013575 43.702338 0 83.254146-18.857487 111.855554-49.327452L618.817818 768.779248a182.380794 182.380794 0 0 0-1.480725 22.931268c0 92.790336 70.750367 168.013575 158.02406 168.013575 87.275739 0 158.026106-75.223239 158.026106-168.013575 0-92.793406-70.738088-168.016645-158.014849-168.016644-51.687196 0-97.575316 26.39516-126.399805 67.185168L400.629493 558.414099a178.1177 178.1177 0 0 0 6.021134-46.113247 177.466877 177.466877 0 0 0-7.198959-50.278103l247.401669-131.966591c28.674063 42.524512 75.552743 70.232574 128.519073 70.232574z"  ></path>
    </svg>