<?xml version="1.0" standalone="no"?>
    <svg xmlns="http://www.w3.org/2000/svg" class="icon" viewBox="0 0 1024 1024">
      <path d="M305.510112 457.234699h506.08529l-112.379486 365.122815h-506.086314l112.38051-365.122815zM173.743066 201.700815h171.525562l73.001641 109.532649h303.124785v36.473703H224.619804l-50.875714 165.280323V201.700815zM64.212464 92.115977v839.768046h715.834408l179.741687-584.175833H830.868351V201.700815H476.868875L403.865187 92.115977H64.212464z m0 0"  ></path><path d="M599.249133 689.940668c-19.349697 0-36.528961 9.292644-47.321772 23.65577l-92.972484-46.644344a59.1911 59.1911 0 0 0 2.25639-16.236799c0-6.167466-0.945535-12.112875-2.696412-17.703197l92.620467-46.469358c10.734482 14.975063 28.284183 24.733311 48.113811 24.733311 32.673144 0 59.159378-26.486234 59.159378-59.160401 0-32.673144-26.485211-59.159378-59.159378-59.159378-32.673144 0-59.159378 26.486234-59.159378 59.159378 0 2.261507 0.132006 4.490268 0.378623 6.685259l-97.686856 49.010227c-10.608615-10.073426-24.947182-16.255219-40.730656-16.255219-32.673144 0-59.159378 26.486234-59.159378 59.159378s26.486234 59.159378 59.159378 59.159378c16.359596 0 31.16479-6.638187 41.874712-17.369599l96.715739 48.521086a59.865459 59.865459 0 0 0-0.551562 8.072863c0 32.67519 26.486234 59.160401 59.160401 59.160401 32.673144 0 59.159378-26.486234 59.159378-59.160401-0.001023-32.670074-26.485211-59.158355-59.160401-59.158355z m0 0"  ></path>
    </svg>