<?xml version="1.0" standalone="no"?>
    <svg xmlns="http://www.w3.org/2000/svg" class="icon" viewBox="0 0 1024 1024">
      <path d="M632.063493 642.039705c-23.561625 0-44.480051 11.31572-57.623395 28.80607L461.228663 614.047164a72.057129 72.057129 0 0 0 2.747577-19.771299 71.987544 71.987544 0 0 0-3.283789-21.556968l112.783692-56.58474c13.071713 18.235316 34.441417 30.117948 58.58735 30.117948 39.786145 0 72.037686-32.251541 72.037686-72.039733 0-39.785122-32.251541-72.037686-72.037686-72.037686-39.785122 0-72.037686 32.251541-72.037686 72.037686 0 2.75474 0.160659 5.468548 0.460487 8.140401l-118.952182 59.679217c-12.918217-12.266371-30.377868-19.793812-49.597605-19.793811-39.785122 0-72.037686 32.251541-72.037686 72.037686 0 39.785122 32.251541 72.037686 72.037686 72.037686 19.920702 0 37.94931-8.083096 50.990325-21.150715l117.76924 59.083653a72.801073 72.801073 0 0 0-0.671289 9.829879c0 39.788192 32.251541 72.039733 72.039733 72.039733 39.786145 0 72.037686-32.251541 72.037687-72.039733-0.001023-39.782052-32.251541-72.036663-72.03871-72.036663z m0 0"  ></path><path d="M176.267563 176.267563h200.936405l106.819864 142.464689h363.708605v529.000185H176.267563V176.267563zM64.35982 64.35982v895.28036h895.28036V206.819392H539.977191L433.158351 64.35982H64.35982z m0 0"  ></path>
    </svg>