<?xml version="1.0" standalone="no"?>
    <svg xmlns="http://www.w3.org/2000/svg" class="icon" viewBox="0 0 1024 1024">
      <path d="M884.657418 553.989323c-41.145096 0-74.499761-33.354666-74.499761-74.499761s33.354666-74.499761 74.499761-74.499761 74.499761 33.354666 74.499761 74.499761-33.354666 74.499761-74.499761 74.499761z m-372.500852 0c-41.145096 0-74.499761-33.354666-74.499761-74.499761s33.354666-74.499761 74.499761-74.499761 74.499761 33.354666 74.499761 74.499761-33.354666 74.499761-74.499761 74.499761z m-372.500853 0c-41.145096 0-74.499761-33.354666-74.499761-74.499761s33.354666-74.499761 74.499761-74.499761 74.499761 33.354666 74.499762 74.499761-33.354666 74.499761-74.499762 74.499761z"  ></path>
    </svg>