<?xml version="1.0" standalone="no"?>
    <svg xmlns="http://www.w3.org/2000/svg" class="icon" viewBox="0 0 1024 1024">
      <path d="M851.573929 230.763734l18.049075-131.299395c2.964518-21.950941 23.551392-37.33328 45.680388-34.329876 22.210861 3.004427 37.762045 23.154349 34.757619 45.065382l-32.483832 236.340752c-2.76088 20.10899-20.139689 34.69008-40.158629 34.690081-1.786693 0-3.613294-0.119727-5.440919-0.361227l-243.627716-32.045857c-22.210861-2.923586-37.84391-23.073508-34.879392-45.02445 2.964518-21.912056 23.550369-37.093826 45.639456-34.409694l156.53515 20.61655c-67.014276-83.513042-170.150238-133.103484-283.72904-133.103484-201.479781 0-365.441063 161.754011-365.441063 360.521007s163.961282 360.521007 365.441063 360.521007 365.442086-161.754011 365.442086-360.521007c0-22.1116 18.190291-40.058344 40.60479-40.058345 22.413476 0 40.60479 17.945721 40.60479 40.058345 0 242.951311-200.38382 440.636672-446.650643 440.636672S65.266469 760.375857 65.266469 517.424546 265.650289 76.787874 511.917112 76.787874c134.63128 0 257.393231 57.147558 339.656817 153.97586z"  ></path>
    </svg>