<?xml version="1.0" standalone="no"?>
    <svg xmlns="http://www.w3.org/2000/svg" class="icon" viewBox="0 0 1024 1024">
      <path d="M915.438469 724.669634L796.727787 558.833655V348.761172c0-157.0028-127.737266-284.740066-284.740067-284.740066S227.247654 191.758372 227.247654 348.761172v210.072483L108.561531 724.669634a34.809807 34.809807 0 0 0-2.645246 36.156478 34.792411 34.792411 0 0 0 30.939663 18.878976h213.688847v21.645996c0 87.164199 70.930469 158.119227 158.094667 158.119227 87.188758 0 158.119227-70.955028 158.119228-158.119227v-21.645996h220.386386a34.792411 34.792411 0 0 0 30.939663-18.878976c5.967922-11.599176 4.924149-25.576515-2.64627-36.156478z m-318.275857 76.68145c0 48.823985-39.699164 88.523149-88.52315 88.523149-48.799426 0-88.49859-39.699164-88.49859-88.523149v-21.645996h177.022763v21.645996z m-392.628262-91.241051l85.805248-119.875204a34.679847 34.679847 0 0 0 6.503111-20.237927V348.761172c0-118.638027 96.506984-215.145012 215.145011-215.145012s215.145012 96.506984 215.145012 215.145012v221.23573a34.679847 34.679847 0 0 0 6.503111 20.237927l85.829807 119.875204H204.53435z"  ></path>
    </svg>