<?xml version="1.0" standalone="no"?>
    <svg xmlns="http://www.w3.org/2000/svg" class="icon" viewBox="0 0 1024 1024">
      <path d="M698.863898 591.022775c-8.745175 0-17.249873-4.53734-21.935591-12.656252-6.988158-12.101619-2.840698-27.577079 9.260921-34.56319l162.228825-93.663216c14.19735-8.196683 26.355251-18.918885 36.136011-31.869848 9.456373-12.521175 16.319687-26.597775 20.397563-41.838897 4.080945-15.249309 5.16872-30.877241 3.230577-46.452985-2.00261-16.117073-7.178493-31.493272-15.383362-45.703925-8.205892-14.2127-18.935258-26.383904-31.890314-36.175921-12.522198-9.466606-26.600845-16.33913-41.841967-20.427238-15.240099-4.087085-30.859845-5.182023-46.435589-3.254114-16.10377 1.994424-31.469736 7.16212-45.668109 15.359826L564.736085 333.439208c-12.103666 6.987135-27.576055 2.839675-34.564214-9.261944-6.987135-12.101619-2.840698-27.577079 9.261945-34.564214l162.227801-93.662193c20.09978-11.604292 41.884946-18.924002 64.751747-21.755489 22.074761-2.732228 44.200688-1.186012 65.765842 4.598738 21.566178 5.783727 41.501206 15.519462 59.248406 28.935006 18.382673 13.895475 33.589003 31.136138 45.197388 51.242058s18.936281 41.896202 21.779026 64.765049c2.744507 22.072715 1.207501 44.203758-4.565992 65.778122-5.77247 21.568225-15.494902 41.504276-28.900214 59.254546-13.887288 18.387789-31.118741 33.595142-51.217498 45.198411l-162.228825 93.66117a25.187659 25.187659 0 0 1-12.627599 3.394307zM236.411361 840.991919c-14.993482 0-29.922497-1.974981-44.592614-5.910616-21.564132-5.782703-41.497113-15.518438-59.245336-28.93296-18.386766-13.899568-33.594119-31.140231-45.200458-51.244104-11.607362-20.10285-18.934235-41.893132-21.776979-64.764026-2.744507-22.072715-1.208525-44.203758 4.564969-65.776076 5.77247-21.569248 15.495926-41.504276 28.901237-59.254545 13.883195-18.385742 31.115672-33.593096 51.217498-45.197388l162.227802-93.663217c12.099572-6.989181 27.577079-2.840698 34.564213 9.261945 6.987135 12.101619 2.840698 27.577079-9.261944 34.564213l-162.227802 93.66117c-14.199397 8.198729-26.357298 18.920932-36.136011 31.869848-9.457396 12.523221-16.320711 26.600845-20.399609 41.840944-4.079922 15.246239-5.166673 30.876218-3.230578 46.450938 2.003634 16.118096 7.178493 31.494295 15.383362 45.702902 8.203846 14.211676 18.933211 26.383904 31.890314 36.176944 12.522198 9.465582 26.600845 16.338107 41.841968 20.426215 15.240099 4.090155 30.862915 5.185093 46.433542 3.25616 16.10684-1.994424 31.470759-7.16212 45.668109-15.358803l162.229848-93.662193c12.099572-6.987135 27.575032-2.841721 34.564213 9.260921 6.987135 12.101619 2.840698 27.577079-9.261944 34.56319l-162.228825 93.662193c-20.098757 11.605316-41.883923 18.924002-64.751746 21.756514a172.229596 172.229596 0 0 1-21.173229 1.309831zM372.857986 308.540122c-8.745175 0-17.249873-4.53734-21.936615-12.656251l-45.545312-78.885652c-6.987135-12.101619-2.840698-27.577079 9.261944-34.564213 12.099572-6.989181 27.577079-2.840698 34.564214 9.261944l45.545312 78.885652c6.987135 12.101619 2.840698 27.577079-9.261944 34.564213a25.190729 25.190729 0 0 1-12.627599 3.394307zM443.382203 287.125393c-2.168386 0-4.370541-0.281409-6.564509-0.868787-13.498432-3.617387-21.508873-17.492396-17.891486-30.989805l25.931602-96.780207c3.618411-13.497409 17.494443-21.502733 30.989805-17.891485 13.498432 3.617387 21.508873 17.492396 17.891486 30.989804l-25.931602 96.780207c-3.028986 11.304464-13.252839 18.760273-24.425296 18.760273zM312.437895 363.034247c-2.168386 0-4.370541-0.281409-6.564509-0.868787l-96.780207-25.931603c-13.498432-3.617387-21.508873-17.492396-17.891486-30.989804 3.617387-13.497409 17.493419-21.505803 30.989805-17.891486l96.780207 25.931602c13.498432 3.617387 21.508873 17.492396 17.891486 30.989805-3.03001 11.304464-13.253862 18.760273-24.425296 18.760273zM686.612876 844.958254c-8.745175 0-17.248849-4.53734-21.935591-12.656251l-45.545312-78.885651c-6.987135-12.101619-2.840698-27.576055 9.260921-34.56319 12.102642-6.987135 27.578102-2.841721 34.564213 9.260921l45.545312 78.885651c6.987135 12.101619 2.841721 27.576055-9.260921 34.56319a25.184589 25.184589 0 0 1-12.628622 3.39533zM534.472827 884.270609c-2.168386 0-4.370541-0.280386-6.564509-0.867764-13.498432-3.616364-21.508873-17.491373-17.891485-30.989805l25.931602-96.780207c3.617387-13.498432 17.492396-21.50478 30.989805-17.892509 13.498432 3.616364 21.508873 17.491373 17.891485 30.989805l-25.931602 96.780207c-3.028986 11.305487-13.252839 18.760273-24.425296 18.760273zM798.251489 737.514173c-2.168386 0-4.370541-0.280386-6.564509-0.867763l-96.780207-25.931603c-13.498432-3.616364-21.508873-17.491373-17.892509-30.989805 3.618411-13.498432 17.494443-21.50478 30.989805-17.892508l96.780207 25.931602c13.498432 3.616364 21.508873 17.491373 17.892509 30.989805-3.03001 11.305487-13.254885 18.760273-24.425296 18.760272z"  ></path>
    </svg>