<?xml version="1.0" standalone="no"?>
    <svg xmlns="http://www.w3.org/2000/svg" class="icon" viewBox="0 0 1024 1024">
      <path d="M442.222797 568.694233h-85.961814l16.46295-16.486486h70.182432c6.088672 0 11.67183-4.105504 12.846586-10.080589 1.587148-8.072863-4.580319-15.172561-12.376888-15.172561H386.087289c-16.47216 0-29.826306-13.354146-29.826306-29.826306 0-16.47216 13.354146-29.826306 29.826306-29.826306h86.34453l-16.486486 16.486486h-70.570265c-6.973832 0-12.627598 5.653767-12.627599 12.627599v1.424442c0 6.973832 5.653767 12.627598 12.627599 12.627599h58.002018c16.673751 0 30.117948 14.08888 29.054733 30.985711-0.978281 15.529695-14.647605 27.240411-30.209022 27.240411z" fill="#FEB912" ></path><path d="M573.159942 568.743352l-40.23333-75.309196-38.833447 75.259054h-18.552542l52.317553-101.391225h9.798157l54.169737 101.391225zM682.498162 467.301985H573.132312l16.482393 16.486486h29.957289v84.904739h16.486486v-84.904739h29.954219zM769.161964 568.535621h-54.627155c-15.884782 0-28.809139-12.923334-28.809139-28.807093v-43.61945c0-15.883759 12.923334-28.807093 28.809139-28.807093h54.627155c15.883759 0 28.807093 12.923334 28.807093 28.807093v43.61945c0 15.883759-12.923334 28.807093-28.807093 28.807093z m-54.627155-84.543512c-6.682189 0-12.117992 5.435803-12.117992 12.116969v43.61945c0 6.681166 5.435803 12.116969 12.117992 12.116969h54.627155c6.681166 0 12.116969-5.435803 12.116969-12.116969v-43.61945c0-6.681166-5.435803-12.116969-12.116969-12.116969h-54.627155zM929.173285 568.535621l-37.867446-41.60763 4.835121 0.004093h0.028653c7.958252 0 15.441691-3.097548 21.071921-8.722662 5.638417-5.631254 8.744151-13.122879 8.744152-21.092387 0-16.439414-13.375635-29.816073-29.816073-29.816073h-85.695754l16.503882 16.486486h69.191872c7.349385 0 13.329587 5.980201 13.329587 13.329587 0 3.563152-1.387603 6.91141-3.90903 9.429766a13.238512 13.238512 0 0 1-9.420557 3.89982h-0.01228l-85.683474-0.081864v58.170864h16.699334v-41.669029l41.819454 0.039909 37.886889 41.62912h22.293749zM940.992471 568.526411v-101.392248h16.486486v84.887342z" fill="#2F9AFD" ></path><path d="M195.371666 390.209166l18.165732 18.165732c4.924149 4.924149 4.924149 12.907984 0 17.833157l-0.288573 0.288572c-4.924149 4.924149-12.909008 4.924149-17.833157 0l-0.065491-0.065491c-4.915963-4.915963-12.883425-4.925173-17.811668-0.02149l-37.20946 37.033452c-4.944616 4.92108-4.953825 12.921287-0.02149 17.853623l55.381332 55.381331c4.924149 4.924149 4.924149 12.909008 0 17.833157l-0.288572 0.288573c-4.924149 4.924149-12.909008 4.924149-17.833158 0l-73.587995-73.587996c-4.949732-4.949732-4.92108-12.982686 0.064468-17.896602l27.351952-26.963095 46.142923-46.142923c4.925173-4.924149 12.909008-4.924149 17.833157 0z" fill="#2F9AFD" ></path><path d="M195.143469 462.436164l73.348541 73.348542c4.924149 4.924149 4.924149 12.909008 0 17.833157l-73.37924 73.379241c-4.924149 4.924149-12.909008 4.924149-17.833158 0l-18.120706-18.12173c-4.924149-4.924149-4.924149-12.907984 0-17.833157l0.288573-0.288572c4.924149-4.924149 12.907984-4.924149 17.833157 0 4.924149 4.924149 12.909008 4.924149 17.833157 0l37.136805-37.136805c4.924149-4.924149 4.924149-12.907984 0-17.833157l-55.227835-55.227836c-4.924149-4.924149-4.924149-12.907984 0-17.833157l0.288572-0.288572c4.924149-4.923126 12.907984-4.923126 17.832134 0.002046z" fill="#2F9AFD" ></path><path d="M85.811388 499.284397l0.287549 0.287549c4.924149 4.924149 4.924149 12.907984 0 17.833157l-0.288572 0.288573c-4.924149 4.924149-12.909008 4.924149-17.833158 0l-0.287549-0.287549c-4.924149-4.924149-4.924149-12.909008 0-17.833157l0.288573-0.288573c4.924149-4.924149 12.909008-4.924149 17.833157 0zM122.0528 535.526833l19.273972 19.273972c4.924149 4.924149 4.924149 12.907984 0 17.833157l-0.288572 0.288573c-4.924149 4.924149-12.909008 4.924149-17.833157 0l-19.272949-19.272949c-4.924149-4.924149-4.924149-12.909008 0-17.833158l0.288572-0.288572c4.924149-4.926196 12.907984-4.926196 17.832134-0.001023zM249.449305 444.370717l19.273973 19.272949c4.924149 4.924149 4.924149 12.907984 0 17.833157l-0.288573 0.288572c-4.924149 4.924149-12.907984 4.924149-17.833157 0l-19.272949-19.272949c-4.924149-4.924149-4.924149-12.907984 0-17.833157l0.288573-0.288572c4.923126-4.924149 12.907984-4.924149 17.832133 0zM304.432571 499.270071l0.287549 0.287549c4.924149 4.924149 4.924149 12.907984 0 17.833157l-0.288573 0.288572c-4.924149 4.924149-12.907984 4.924149-17.833157 0l-0.287549-0.287549c-4.924149-4.924149-4.924149-12.907984 0-17.833157l0.288573-0.288572c4.924149-4.925173 12.907984-4.925173 17.833157 0z" fill="#FEB912" ></path>
    </svg>