<?xml version="1.0" standalone="no"?>
    <svg xmlns="http://www.w3.org/2000/svg" class="icon" viewBox="0 0 1024 1024">
      <path d="M919.022087 837.615009c22.479991 0 40.703027 18.22713 40.703027 40.702004 0 22.481014-18.222013 40.704051-40.703027 40.704051H233.514381c-93.520977 0-169.238472-76.157517-169.238472-169.985486V145.68094c0-22.479991 18.223037-40.703027 40.703027-40.703027 22.475897 0 40.704051 18.222013 40.704051 40.703027v603.349521c0 48.978505 39.374776 88.583524 87.832418 88.583525H919.022087v0.001023z"  ></path><path d="M919.863245 131.412982a41.255613 41.255613 0 0 0-42.817178 3.037173L642.430608 301.247019l-99.101065-105.707531c-14.3181-15.274892-37.813211-17.399275-54.639435-4.938475L218.530109 390.643048a41.251519 41.251519 0 0 0-16.702404 33.151028v326.786694c0 22.781866 18.46863 41.249473 41.250496 41.249473h657.871275c22.781866 0 41.249473-18.46863 41.247427-41.251519V168.069857a41.249473 41.249473 0 0 0-22.333658-36.656875zM284.327674 444.577425l223.938282-165.816537 98.617041 105.190761c14.111392 15.051811 37.174668 17.365506 53.993729 5.40715l198.822254-141.349285v124.261095L632.631428 492.419036l-112.334461-55.158251a41.251519 41.251519 0 0 0-35.863813-0.240477l-200.10548 94.947466v-87.390349z m575.371306 264.752849H284.327674v-86.046748l217.48122-103.193267 113.341394 55.653531a41.24845 41.24845 0 0 0 37.473473-0.565889l207.075219-109.570511v243.722884z"  ></path>
    </svg>