<?xml version="1.0" standalone="no"?>
    <svg xmlns="http://www.w3.org/2000/svg" class="icon" viewBox="0 0 1024 1024">
      <path d="M178.744987 508.946454L61.021795 612.033297V464.61376c0-32.520671 26.363438-58.883085 58.883085-58.883085 32.54216 0 58.914808 26.397207 58.883086 58.94039l-0.042979 44.275389zM178.945555 508.946454l117.92376-103.214756V553.151235c0 32.519648-26.363438 58.883085-58.883086 58.883086h-0.11461c-32.498158 0-58.851363-26.327622-58.883085-58.82578l-0.042979-44.262087z" fill="#4C62E6" ></path><path d="M493.168096 473.229998h17.825994v113.698528h-17.825994V473.229998zM592.018451 448.662463c-10.79895 0-20.002566 3.804652-27.611871 11.412934-7.609305 7.609305-11.413957 16.779152-11.413957 27.503401v2.280949h39.024805v17.825994h-39.024805v79.242785h-17.825994v-99.349728c0-15.653515 5.544273-29.024034 16.630772-40.10951 11.160177-11.089569 24.567535-16.633842 40.22105-16.633842v17.827017zM670.869311 448.662463c-10.79895 0-20.002566 3.804652-27.611872 11.412934-7.609305 7.609305-11.413957 16.779152-11.413957 27.503401v2.280949h39.025829v17.825994h-39.025829v79.242785h-17.825994v-99.349728c0-15.653515 5.545296-29.024034 16.630772-40.10951 11.160177-11.089569 24.567535-16.633842 40.222074-16.633842v17.827017zM728.089523 586.928526l-8.15268-3.476171c-8.261151-3.480264-14.81952-8.91709-19.674085-16.306384-4.929266-7.392364-7.392364-15.579837-7.392364-24.567535V430.836469h17.825994v111.74299c0 5.365194 1.486864 10.254551 4.456498 14.674211 2.899026 4.422729 6.812149 7.684006 11.741416 9.784854l1.196245 0.544399v19.345603zM761.28353 570.298777c-11.085476-11.088546-16.629749-24.492834-16.629749-40.216956 0-15.654538 5.544273-29.024034 16.629749-40.113603 11.085476-11.156084 24.459065-16.738219 40.10951-16.73822 10.508331 0 20.255323 2.715855 29.239951 8.152681 8.983605 5.362124 15.977903 12.68081 20.9788 21.955034 1.087774 2.176572 1.303692 4.422729 0.651846 6.740518-0.722454 2.39249-2.172479 4.169973-4.348028 5.324262l-75.655074 40.545438c7.754614 8.771781 17.464767 13.153578 29.132505 13.153578 8.697079 0 16.45067-2.537799 23.262819-7.609305 6.808056-5.000897 11.484565-11.629875 14.022365-19.891026l17.065678 5.216815c-3.625574 12.028964-10.4367 21.705348-20.434402 29.024034-10.000771 7.389294-21.307282 11.085476-33.91646 11.085476-15.650445 0.001023-29.024034-5.54325-40.10951-16.628726z m12.609179-67.72138c-7.609305 7.609305-11.413957 16.779152-11.413958 27.5034 0 3.476171 0.435928 6.844895 1.304716 10.105149l66.956971-35.868929c-7.753591-8.767688-17.535375-13.153578-29.347398-13.153578-10.725272 0.001023-19.891026 3.804652-27.500331 11.413958zM894.482181 586.928526h-17.827017v-56.847729c0-15.654538 5.545296-29.024034 16.630772-40.113603 11.160177-11.156084 24.567535-16.738219 40.22105-16.738219 9.564843 0 18.549471 2.284019 26.955932 6.848988l-8.477068 15.650445c-5.727445-3.041266-11.886725-4.564969-18.478864-4.564969-10.79895 0-20.002566 3.804652-27.611871 11.413958s-11.412934 16.779152-11.412934 27.5034v56.847729zM468.991464 525.287631c-0.002047-10.885931-2.958378-20.552082-8.840342-29.017894a52.339042 52.339042 0 0 0-14.200421-14.20042c-8.465812-5.881964-18.132986-8.838296-29.017893-8.839319l-0.008187-0.001023h-0.001023c-1.760087 0-3.486404 0.099261-5.191233 0.262989-0.233314 0.021489-0.459464 0.066515-0.691755 0.092098a52.280714 52.280714 0 0 0-4.403286 0.671289c-0.25685 0.051165-0.506537 0.119727-0.762363 0.174985-1.326205 0.286526-2.632967 0.62217-3.920286 1.007957-0.532119 0.162706-1.059122 0.343831-1.586125 0.523933-0.839111 0.281409-1.665942 0.587378-2.484587 0.909719-1.127683 0.457418-2.251274 0.928139-3.349282 1.471514l-0.085957 0.041956c-1.426489 0.709151-2.819209 1.518586-4.196579 2.37407-2.667759 1.597381-5.237281 3.338025-7.567349 5.377474-10.905374 9.543354-17.825994 23.527856-17.825994 39.157835v61.633732h17.825994v-61.632709c0-9.419534 3.330862-17.464767 9.999748-24.131606 6.739495-6.665817 14.81952-10.000771 24.239054-10.000772 9.420557 0 17.46272 3.334955 24.131607 10.000772 6.740518 6.66684 10.109242 14.712073 10.109242 24.131606v61.632709h17.825993v-61.632709l0.001024-0.008186zM493.168096 444.51398h17.825994v17.827017h-17.825994z" fill="#4C62E6" ></path>
    </svg>