<?xml version="1.0" standalone="no"?>
    <svg xmlns="http://www.w3.org/2000/svg" class="icon" viewBox="0 0 1024 1024">
      <path d="M580.358919 507.488865L49.714739 972.158847V307.656649c0-146.588829 118.834739-265.418955 265.418955-265.418955 146.685694 0 265.561946 118.986955 265.418955 265.677261l-0.19373 199.57391zM581.262991 507.488865L1112.811243 42.242306V706.744505c0 146.584216-118.834739 265.418955-265.418955 265.418954h-0.516612c-146.487351 0-265.275964-118.673297-265.418955-265.160648l-0.19373-199.513946z"  ></path><path d="M1997.639495 346.494847h80.351712v512.502775h-80.351712V346.494847zM2443.213261 235.755243c-48.676901 0-90.162739 17.149694-124.462126 51.444469-34.299387 34.299387-51.449081 75.633009-51.449081 123.973189v10.281513h175.906595v80.351712h-175.906595v357.191496h-80.351712V411.172901c0-70.559135 24.991135-130.827532 74.964181-180.795964 50.305153-49.986883 110.739604-74.978018 181.298738-74.978018v80.356324zM2798.638126 235.755243c-48.676901 0-90.162739 17.149694-124.462126 51.444469-34.299387 34.299387-51.449081 75.633009-51.449081 123.973189v10.281513h175.911207v80.351712h-175.911207v357.191496h-80.351712V411.172901c0-70.559135 24.995748-130.827532 74.96418-180.795964 50.305153-49.986883 110.739604-74.978018 181.303352-74.978018v80.356324h-0.004613zM3056.561586 858.997622l-36.748685-15.669045c-37.237622-15.687495-66.799856-40.194306-88.68209-73.501982-22.218955-33.321514-33.321514-70.227027-33.321514-110.739604V155.403532h80.351712v503.688072c0 24.183928 6.702126 46.222991 20.087928 66.144864 13.067532 19.935712 30.706162 34.636108 52.925117 44.105802l5.392144 2.45391-0.004612 87.201442zM3206.185514 784.038054c-49.968432-49.98227-74.959568-110.402883-74.959568-181.280288 0-70.563748 24.991135-130.827532 74.959568-180.814415 49.968432-50.286703 110.250667-75.448505 180.795963-75.448504 47.366919 0 91.302054 12.241874 131.800793 36.748685 40.494126 24.17009 72.021333 57.159495 94.563171 98.963603 4.903207 9.811027 5.876468 19.935712 2.938235 30.383279-3.256505 10.784288-9.792577 18.796396-19.598991 23.999424l-341.019676 182.760937c34.954378 39.539315 78.723459 59.290523 131.316468 59.290522 39.202595 0 74.15236-11.439279 104.858523-34.299387 30.687712-22.541838 51.767351-52.422342 63.206631-89.659964l76.92454 23.515099c-16.342486 54.221261-47.044036 97.838126-92.109261 130.827532-45.079063 33.307676-96.04382 49.968432-152.880433 49.968432-70.545297 0.004613-130.827532-24.986523-180.795963-74.954955z m56.836612-305.25809c-34.299387 34.299387-51.449081 75.633009-51.449081 123.973189 0 15.669045 1.964973 30.853766 5.881081 45.54955l301.812469-161.681298c-34.949766-39.520865-79.04173-59.290523-132.285118-59.290522-48.344793 0.004613-89.659964 17.149694-123.959351 51.449081zM3806.586234 858.997622h-80.356324v-256.244469c0-70.563748 24.995748-130.827532 74.96418-180.814414 50.305153-50.286703 110.739604-75.448505 181.298739-75.448505 43.11409 0 83.612829 10.295351 121.505441 30.872216l-38.210883 70.545298c-25.816793-13.708685-53.580108-20.576865-83.294558-20.576865-48.676901 0-90.162739 17.149694-124.462126 51.449081s-51.444468 75.633009-51.444469 123.973189v256.244469zM1888.66191 581.147676c-0.009225-49.068973-13.335063-92.639712-39.84836-130.799856a235.921297 235.921297 0 0 0-64.009226-64.009225c-38.160144-26.513297-81.735495-39.839135-130.799856-39.843748l-0.0369-0.004613h-0.004613c-7.933694 0-15.715171 0.447423-23.399784 1.185442-1.051676 0.096865-2.071063 0.29982-3.118126 0.415135a235.658378 235.658378 0 0 0-19.848072 3.025874c-1.157766 0.230631-2.283243 0.539676-3.436396 0.788756-5.977946 1.291532-11.868252 2.804468-17.670919 4.543424-2.398559 0.733405-4.774054 1.549838-7.14955 2.361658-3.782342 1.268468-7.509333 2.64764-11.199423 4.100612-5.083099 2.061838-10.147748 4.18364-15.097081 6.632937l-0.38746 0.189117c-6.429982 3.196541-12.707748 6.845117-18.916324 10.701261-12.025081 7.200288-23.607351 15.046342-34.11027 24.23928-49.156613 43.017225-80.351712 106.053189-80.351712 176.506234v277.817658h80.351712v-277.813045c0-42.459099 15.014054-78.723459 45.07445-108.774631 30.378667-30.046559 66.799856-45.079063 109.258955-45.079063 42.463712 0 78.714234 15.032505 108.774631 45.079063 30.383279 30.051171 45.568 66.315532 45.568 108.774631v277.813045h80.351711v-277.813045l0.004613-0.036901zM1997.639495 217.055712h80.351712v80.356324h-80.351712z"  ></path>
    </svg>