<?xml version="1.0" standalone="no"?>
    <svg xmlns="http://www.w3.org/2000/svg" class="icon" viewBox="0 0 1024 1024">
      <path d="M402.520563 714.283076l-99.610672 99.592253V111.432928c0-20.275789-16.45067-36.726459-36.726459-36.726459s-36.726459 16.45067-36.72646 36.726459v702.431144l-99.562576-99.579973c-14.34573-14.34573-37.58706-14.34573-51.93279 0-14.34573 14.34573-14.34573 37.58706 0 51.93279l162.255431 162.278967c6.885827 6.885827 16.211217 10.760065 25.966395 10.760064s19.080567-3.873214 25.966394-10.760064l162.303527-162.278967c14.34573-14.34573 14.34573-37.58706 0-51.93279-14.34573-14.346753-37.58706-14.346753-51.93279-0.001023zM624.551402 188.734502H922.04391c20.275789 0 36.726459-16.45067 36.72646-36.726459s-16.45067-36.726459-36.72646-36.72646H624.551402c-20.275789 0-36.726459 16.45067-36.726459 36.72646s16.45067 36.726459 36.726459 36.726459zM922.04391 358.689289H624.551402c-20.275789 0-36.726459 16.45067-36.726459 36.726459s16.45067 36.726459 36.726459 36.72646H922.04391c20.275789 0 36.726459-16.45067 36.72646-36.72646s-16.45067-36.726459-36.72646-36.726459zM922.04391 602.095971H624.551402c-20.275789 0-36.726459 16.45067-36.726459 36.726459s16.45067 36.726459 36.726459 36.72646H922.04391c20.275789 0 36.726459-16.45067 36.72646-36.72646s-16.45067-36.726459-36.72646-36.726459zM922.04391 845.527213H624.551402c-20.275789 0-36.726459 16.45067-36.726459 36.726459s16.45067 36.726459 36.726459 36.726459H922.04391c20.275789 0 36.726459-16.45067 36.72646-36.726459s-16.45067-36.726459-36.72646-36.726459z"  ></path>
    </svg>