<?xml version="1.0" standalone="no"?>
    <svg xmlns="http://www.w3.org/2000/svg" class="icon" viewBox="0 0 1024 1024">
      <path d="M129.895419 299.67829l99.610672-99.592252v702.443423c0 20.275789 16.45067 36.726459 36.726459 36.726459s36.726459-16.45067 36.72646-36.726459V200.098317L402.521586 299.67829c14.34573 14.34573 37.58706 14.34573 51.93279 0 14.34573-14.34573 14.34573-37.58706 0-51.932789L292.197922 85.466534a36.700877 36.700877 0 0 0-25.966395-10.760065 36.69576 36.69576 0 0 0-25.966395 10.760065L77.961606 247.745501c-14.34573 14.34573-14.34573 37.58706 0 51.932789s37.58706 14.346753 51.933813 0zM624.551402 188.734502H922.04391c20.275789 0 36.726459-16.45067 36.72646-36.726459s-16.45067-36.726459-36.72646-36.72646H624.551402c-20.275789 0-36.726459 16.45067-36.726459 36.72646s16.45067 36.726459 36.726459 36.726459zM922.04391 358.689289H624.551402c-20.275789 0-36.726459 16.45067-36.726459 36.726459s16.45067 36.726459 36.726459 36.72646H922.04391c20.275789 0 36.726459-16.45067 36.72646-36.72646s-16.45067-36.726459-36.72646-36.726459zM922.04391 602.095971H624.551402c-20.275789 0-36.726459 16.45067-36.726459 36.726459s16.45067 36.726459 36.726459 36.72646H922.04391c20.275789 0 36.726459-16.45067 36.72646-36.72646s-16.45067-36.726459-36.72646-36.726459zM922.04391 845.527213H624.551402c-20.275789 0-36.726459 16.45067-36.726459 36.726459s16.45067 36.726459 36.726459 36.726459H922.04391c20.275789 0 36.726459-16.45067 36.72646-36.726459s-16.45067-36.726459-36.72646-36.726459z"  ></path>
    </svg>