<?xml version="1.0" standalone="no"?>
    <svg xmlns="http://www.w3.org/2000/svg" class="icon" viewBox="0 0 1024 1024">
      <path d="M658.264225 622.488417V510.635933h149.136645v111.852484h-149.136645zM434.558234 808.910247V697.057763h149.136645v111.852484h-149.136645z m-223.704969 0V697.057763h149.136646v111.852484h-149.136646z m223.704969-186.42183V510.635933h149.136645v111.852484h-149.136645z m-223.704969 0V510.635933h149.136646v111.852484h-149.136646z m596.547605-484.679771h149.136646v820.253596H61.715597V137.808646h149.136645V63.224973h149.174508v74.568323h298.236452v-74.568323h149.136645v74.583673z m74.568323 298.258964H136.284943v447.425286h745.68425V436.06761z m0-74.568323V212.376968h-74.568323v74.553997h-149.136645v-74.568323H360.02675v74.568323H210.853265v-74.553997h-74.568322v149.122319h745.68425z"  ></path>
    </svg>