<?xml version="1.0" standalone="no"?>
    <svg xmlns="http://www.w3.org/2000/svg" class="icon" viewBox="0 0 1024 1024">
      <path d="M511.580444 959.463148c-60.46614 0-109.669772-49.181119-109.669771-109.647259V827.939649a334.418512 334.418512 0 0 1-36.616966-15.144932l-15.459087 15.436574c-42.763966 42.786479-112.295576 42.763966-155.059542 0-20.708648-20.708648-32.107255-48.238654-32.107255-77.518514s11.397584-56.809867 32.107255-77.518515l15.459087-15.481599a329.615113 329.615113 0 0 1-15.144932-36.594453h-21.875216c-60.46614 0-109.647259-49.203632-109.647259-109.669772 0-60.467163 49.181119-109.647259 109.647259-109.647259h21.853727a336.323908 336.323908 0 0 1 15.167445-36.616966l-15.459087-15.459087c-42.718941-42.741453-42.718941-112.294552-0.022513-155.058518 42.763966-42.696428 112.318088-42.696428 155.082054-0.022513l15.459087 15.4816a331.756893 331.756893 0 0 1 36.616966-15.144932V173.105546c0-60.46614 49.203632-109.669772 109.669772-109.669771 60.467163 0 109.647259 49.203632 109.647259 109.669771v21.875217a331.756893 331.756893 0 0 1 36.616966 15.144932l15.459086-15.459087c42.786479-42.696428 112.318088-42.696428 155.059542-0.022513 42.718941 42.786479 42.718941 112.339578 0.022513 155.082055l-15.4816 15.459086a331.756893 331.756893 0 0 1 15.144932 36.616966h21.87624c60.46614 0 109.669772 49.181119 109.669772 109.647259 0 60.46614-49.203632 109.669772-109.669772 109.669772h-21.853727a334.560752 334.560752 0 0 1-15.167445 36.616966l15.459087 15.459087c20.708648 20.708648 32.106232 48.238654 32.106232 77.518514s-11.397584 56.809867-32.106232 77.518514c-42.741453 42.763966-112.273063 42.786479-155.059542 0l-15.459086-15.436574a336.178599 336.178599 0 0 1-36.616966 15.144932v21.87624c0 60.465117-49.181119 109.646236-109.648283 109.646236zM353.536942 727.086683l22.997783 13.574157a264.345574 264.345574 0 0 0 68.431556 28.337395l25.869181 6.66377v74.152861c0 22.459524 18.285458 40.72247 40.744982 40.72247s40.72247-18.262946 40.722471-40.72247v-74.152861l25.86918-6.66377a265.798669 265.798669 0 0 0 68.454068-28.337395l22.975271-13.551644 52.43421 52.389184c15.839757 15.862269 41.664935 15.907295 57.594743 0 7.673773-7.696286 11.914354-17.904789 11.914354-28.786627s-4.240581-21.090341-11.914354-28.786626l-52.43421-52.43421 13.574157-22.997783c12.586666-21.291932 22.122857-44.334741 28.359908-68.476581l6.686282-25.824155h74.107835c22.459524 0 40.744983-18.285458 40.744983-40.744983s-18.285458-40.72247-40.744983-40.722471h-74.107835l-6.686282-25.824155c-6.237051-24.096814-15.773242-47.139623-28.359908-68.499093l-13.551644-22.997784 52.411697-52.411697c15.862269-15.884782 15.862269-41.709961-0.022513-57.594742s-41.732473-15.862269-57.57223 0.022512l-52.411697 52.389184-22.997784-13.551644c-21.35947-12.586666-44.402279-22.122857-68.499093-28.359908l-25.824155-6.686282v-74.107835c0-22.459524-18.262946-40.744983-40.722471-40.744983-22.458501 0-40.744983 18.285458-40.744982 40.744983v74.107835l-25.824156 6.686282a266.156826 266.156826 0 0 0-68.499093 28.359908l-22.997784 13.551644-52.411697-52.411696c-15.929808-15.884782-41.754986-15.862269-57.594742 0.022512-15.862269 15.862269-15.862269 41.687448 0.022512 57.57223l52.389184 52.411697-13.551644 22.997784c-12.586666 21.35947-22.122857 44.402279-28.359908 68.499093l-6.686282 25.824155h-74.107835c-22.459524 0-40.72247 18.262946-40.72247 40.722471s18.262946 40.744983 40.72247 40.744983h74.107835l6.686282 25.824155a266.156826 266.156826 0 0 0 28.359908 68.499093l13.551644 22.997784-52.411696 52.411697c-7.673773 7.696286-11.913331 17.904789-11.913331 28.786626s4.240581 21.090341 11.913331 28.786627c15.839757 15.862269 41.664935 15.907295 57.594742 0l52.43421-52.411697z"  ></path><path d="M511.580444 658.700153c-81.198324 0-147.251715-66.053392-147.251715-147.251715s66.054415-147.250692 147.251715-147.250692c81.175811 0 147.229203 66.053392 147.229203 147.251715s-66.053392 147.250692-147.229203 147.250692z m0-225.577618c-43.190685 0-78.325903 35.135218-78.325903 78.325903s35.135218 78.325903 78.325903 78.325903c43.168172 0 78.30339-35.136242 78.303391-78.325903s-35.135218-78.325903-78.303391-78.325903z"  ></path>
    </svg>