<?xml version="1.0" standalone="no"?>
    <svg xmlns="http://www.w3.org/2000/svg" class="icon" viewBox="0 0 1024 1024">
      <path d="M431.691953 960.490547a34.641985 34.641985 0 0 1-18.104333-5.130857 34.479279 34.479279 0 0 1-16.312525-29.286V509.241166L133.950781 283.537681a34.452673 34.452673 0 0 1-12.009521-26.12603V100.07116c0-19.000749 15.416108-34.416857 34.416857-34.416858h708.009186c19.000749 0 34.416857 15.416108 34.416857 34.416858v157.340491c0 10.038634-4.39203 19.583011-12.010545 26.12603L623.449301 509.241166v338.16279a34.365692 34.365692 0 0 1-19.045775 30.78719l-157.340491 78.669734a34.422997 34.422997 0 0 1-15.371082 3.629667zM190.773951 241.59236L454.098265 467.295845a34.452673 34.452673 0 0 1 12.009522 26.126031v376.971677l88.506776-44.252876v-332.717778c0-10.038634 4.39203-19.583011 12.010545-26.12603l263.324314-225.703485V134.488017H190.773951v107.104343z m673.592329 15.819291h0.448208-0.448208z"  ></path>
    </svg>