<?xml version="1.0" standalone="no"?>
    <svg xmlns="http://www.w3.org/2000/svg" class="icon" viewBox="0 0 1024 1024">
      <path d="M884.771005 210.365148H712.373587v-88.779999c0-31.763424-25.731034-57.465806-57.465806-57.465806H367.606379c-31.734772 0-57.465806 25.702382-57.465806 57.465806v88.779999H136.396483c-31.734772 0-57.465806 25.702382-57.465806 57.465807s25.731034 57.465806 57.465806 57.465806h58.896388v574.658062c0 31.763424 25.731034 57.465806 57.465807 57.465806h515.396353c31.735795 0 57.465806-25.702382 57.465806-57.465806v-574.658062h59.149145c31.735795 0 57.465806-25.702382 57.465806-57.465806s-25.730011-57.465806-57.464783-57.465807zM425.072185 179.050955h172.369789v31.314193H425.072185V179.050955z m285.61704 663.438061H310.224484V325.296761h400.464741v517.192255z"  ></path><path d="M423.725514 429.79065c-31.734772 0-57.465806 25.702382-57.465806 57.465806v219.425502c0 31.763424 25.731034 57.465806 57.465806 57.465806s57.465806-25.702382 57.465806-57.465806V487.256456c0-31.763424-25.731034-57.465806-57.465806-57.465806zM596.122933 429.79065c-31.735795 0-57.465806 25.702382-57.465807 57.465806v219.425502c0 31.763424 25.731034 57.465806 57.465807 57.465806 31.734772 0 57.465806-25.702382 57.465806-57.465806V487.256456c0-31.763424-25.731034-57.465806-57.465806-57.465806z"  ></path>
    </svg>