<?xml version="1.0" standalone="no"?>
    <svg xmlns="http://www.w3.org/2000/svg" class="icon" viewBox="0 0 1024 1024">
      <path d="M923.933957 216.71067H695.609785V100.980879c0-18.993586-15.409968-34.403554-34.403555-34.403554H360.963075c-18.993586 0-34.403554 15.409968-34.403554 34.403554v115.729791H98.257861c-18.993586 0-34.403554 15.409968-34.403554 34.403555s15.409968 34.403554 34.403554 34.403554h78.168314V926.657998c0 18.993586 15.409968 34.403554 34.403554 34.403554h600.509847c18.993586 0 34.403554-15.409968 34.403554-34.403554V285.517779h78.190827c18.993586 0 34.403554-15.409968 34.403554-34.403554s-15.409968-34.403554-34.403554-34.403555z m-528.567328-81.326237h231.438093v81.32726H395.366629v-81.32726zM776.937045 892.254443H245.233284V285.517779h531.703761V892.254443z"  ></path><path d="M511.096421 441.899432c-18.993586 0-34.403554 15.409968-34.403555 34.403555v225.188762c0 18.993586 15.409968 34.403554 34.403555 34.403554s34.403554-15.409968 34.403554-34.403554v-225.188762c-0.001023-18.993586-15.409968-34.403554-34.403554-34.403555zM360.963075 441.899432c-18.993586 0-34.403554 15.409968-34.403554 34.403555v225.188762c0 18.993586 15.409968 34.403554 34.403554 34.403554s34.403554-15.409968 34.403554-34.403554v-225.188762c0-18.993586-15.409968-34.403554-34.403554-34.403555zM626.803699 476.302987v225.188762c0 18.993586 15.409968 34.403554 34.403554 34.403554s34.403554-15.409968 34.403555-34.403554v-225.188762c0-18.993586-15.409968-34.403554-34.403555-34.403555s-34.403554 15.409968-34.403554 34.403555z"  ></path>
    </svg>