<?xml version="1.0" standalone="no"?>
    <svg xmlns="http://www.w3.org/2000/svg" class="icon" viewBox="0 0 1024 1024">
      <path d="M959.585945 591.713506V429.573709H827.361481c-7.661494-29.671787-19.335371-57.640792-34.535561-83.420945l93.473905-93.473904L771.667018 138.047076l-93.473905 93.473905c-25.780153-15.20019-53.749158-26.874067-83.420945-34.535561V64.759933H432.633395v132.224464c-29.671787 7.661494-57.640792 19.335371-83.420945 34.53556L255.738545 138.047076 141.106762 252.679883l93.472881 93.473905a322.955436 322.955436 0 0 0-34.535561 83.420944H67.819618v162.138774h132.224464c7.661494 29.671787 19.335371 57.640792 34.535561 83.420945l-93.472881 93.473905L255.738545 883.240139l93.473905-93.472881c25.739221 15.20019 53.749158 26.875091 83.420945 34.535561v132.224464h162.138773V824.301795c29.671787-7.661494 57.640792-19.335371 83.420945-34.535561l93.473905 93.472882L886.299825 768.606309l-93.473905-93.473905c15.20019-25.739221 26.874067-53.749158 34.535561-83.420944h132.224464z m-445.883163 40.534182c-67.166749 0-121.604592-54.437843-121.604593-121.604592s54.437843-121.604592 121.604593-121.604592 121.604592 54.438866 121.604592 121.604592c0 67.166749-54.437843 121.604592-121.604592 121.604592z"  ></path>
    </svg>