<?xml version="1.0" standalone="no"?>
    <svg xmlns="http://www.w3.org/2000/svg" class="icon" viewBox="0 0 1024 1024">
      <path d="M585.487711 64.021106h-409.281547v895.449205H847.792812V298.650891L585.487711 64.021106z m151.902642 782.99911H286.609647V176.471201h257.283737l193.496969 173.083033v497.465982z"  ></path><path d="M647.747707 636.110669l-64.990177-29.55513s-17.596773-5.485945-22.417568-11.022031c-3.232624-3.673669-4.199649-15.784498-0.12996-23.715121 4.072759-7.992021 36.954657-51.66673 36.954656-88.351234 0.034792-59.123562-38.052664-107.080807-85.064374-107.080807-47.211255 0.001023-85.298711 47.958268-85.264942 107.081831 0 36.683481 32.881898 80.359212 36.954656 88.351233 4.069689 7.9296 3.104711 20.041452-0.128936 23.715122-4.821819 5.535063-22.418592 11.022031-22.418592 11.022031l-64.989154 29.555129c-15.157211 5.564739-27.061332 20.162202-27.061332 36.654828v7.830339c0 17.958 14.370289 28.980032 31.878035 28.980032l261.860986-0.001023c17.509792 0 31.878035-11.022031 31.878034-28.980032v-7.830339c0-16.492626-11.904121-31.089066-27.061332-36.654828z"  ></path>
    </svg>