<?xml version="1.0" standalone="no"?>
    <svg xmlns="http://www.w3.org/2000/svg" class="icon" viewBox="0 0 1024 1024">
      <path d="M63.981197 959.469288h895.449205V206.507284H539.688619L432.849312 64.021106H63.981197v895.448182z m111.929232-783.519974h200.974267l106.841354 142.491295h363.776144v529.099447H175.910429V175.949314z"  ></path><path d="M678.386518 668.577105l-74.815963-33.249265s-20.255323-6.173606-25.805736-12.399401c-3.721765-4.133134-4.834098-17.759479-0.149402-26.67964 4.688789-8.990768 42.540885-58.125839 42.540885-99.395777 0.040932-66.51388-43.806715-120.465652-97.92324-120.465653l-0.115634 0.002047-0.115633-0.001023c-54.116525 0-97.963149 53.951773-97.922217 120.465652 0 41.268916 37.85312 90.403986 42.540885 99.394754 4.684696 8.921183 3.572362 22.546505-0.148379 26.67964-5.551436 6.227842-25.807782 12.399401-25.807782 12.399401l-74.81494 33.249265c-17.446347 6.261611-31.151487 22.682605-31.151487 41.237193v8.80862c0 20.203134 16.541745 32.602535 36.696783 32.602535h301.444517c20.156062 0 36.696784-12.401448 36.696784-32.602535v-8.809643c0.002047-18.554588-13.703093-34.975583-31.149441-41.23617z"  ></path>
    </svg>