<?xml version="1.0" standalone="no"?>
    <svg xmlns="http://www.w3.org/2000/svg" class="icon" viewBox="0 0 1024 1024">
      <path d="M305.501349 457.203158h506.116119L699.260917 822.310782H193.144799l112.35655-365.107624zM173.804737 201.689218h171.502348l72.960128 109.491356h303.096632v36.428899H224.661937l-50.8572 165.260318V201.689218zM64.211052 92.095533v839.706606h715.786949l179.688618-584.192666h-128.933746V201.689218H476.901369L403.838913 92.095533H64.211052z"  ></path><path d="M604.402518 718.754472L551.703408 694.809633s-14.223643-4.40012-18.21445-8.902568c-2.660538-2.967523-3.376836-12.791046-0.102329-19.237734 3.274508-6.446687 29.982212-41.852303 29.982213-71.629859 0-47.889677-30.800839-86.774458-68.969322-86.774458-38.27081 0-69.173978 38.884781-69.07165 86.774458 0 29.777556 26.605376 65.080843 29.982213 71.629859 3.274508 6.446687 2.558209 16.270211-0.102328 19.237734-3.888478 4.40012-18.21445 8.902568-18.21445 8.902568l-52.699111 23.944839c-12.279404 4.502448-21.898271 16.372539-21.898271 29.675227v6.344359c0 14.530629 11.665434 23.535525 25.786749 23.535525h212.22904c14.223643 0 25.786749-8.902568 25.786749-23.535525v-6.344359c0.102328-13.405016-9.516538-25.172779-21.795943-29.675227z"  ></path>
    </svg>