<?xml version="1.0" standalone="no"?>
    <svg xmlns="http://www.w3.org/2000/svg" class="icon" viewBox="0 0 1024 1024">
      <path d="M832.758398 629.739565c-15.98302 65.208141-51.313689 123.048477-102.192474 167.283957-65.35345 56.795541-149.183717 84.816734-235.305167 78.724993-86.412069-6.033413-165.253718-45.367257-222.077911-110.74936-44.75839-51.458999-71.76344-114.461915-78.144778-182.135201-4.90266-52.618405 3.13234-106.165971 23.263843-154.810878 19.318998-46.614667 48.529273-87.137593 86.87665-120.437 65.35345-56.825217 148.922774-85.019349 235.305167-78.754668 68.862367 4.807493 132.373867 31.54546 184.314843 74.975599l-132.159996 45.519729 19.318998 56.158021 253.869988-87.398536-87.427188-253.841335-56.158021 19.318997 52.658313 152.968927c-64.646346-52.840462-143.613862-84.732823-228.615814-90.661859-108.863407-7.889691-213.579353 27.556613-295.668977 98.943476-48.151673 41.828664-84.845387 92.736101-109.154025 151.387919-25.294083 61.117986-35.388998 128.327714-29.210276 194.405665 7.976672 85.10633 41.944298 164.267251 98.159624 228.92383 71.386864 82.147952 170.474626 131.575688 279.048437 139.14713 9.717316 0.695848 19.376303 1.01512 29.036314 1.01512 98.130971 0 191.882192-34.924417 266.662339-99.929943 63.902402-55.577806 108.312868-128.269385 128.356366-210.272028l-80.756255-19.782555z"  ></path>
    </svg>