<?xml version="1.0" standalone="no"?>
    <svg xmlns="http://www.w3.org/2000/svg" class="icon" viewBox="0 0 1024 1024">
      <path d="M481.368352 719.687156v-59.586097h59.586097v59.586097h-59.586097z m68.983118-119.17117h-73.18379v-99.30982h36.591383c38.311561 0 73.183789-31.547507 73.18379-66.206888s-34.872229-66.206888-73.18379-66.206887c-29.602202 0-57.449433 22.444175-69.707618 44.623313l-16.393365 29.594015-65.462944-29.594015 16.393365-29.627784c22.357194-40.419572 72.780607-81.202417 135.169539-81.202417 79.33079 0 146.366555 60.645219 146.366556 132.413775 0 60.380182-47.459918 112.88193-109.775173 128.043235v37.473473z m-39.190581 357.515557c-246.425436 0-446.89419-200.469777-446.89419-446.89419S264.736477 64.24214 511.160889 64.24214 958.056102 264.711917 958.056102 511.13633 757.586324 958.031543 511.160889 958.031543z m0-819.307038c-205.347878 0-372.411825 167.063947-372.411825 372.411825s167.063947 372.411825 372.411825 372.411824 372.411825-167.063947 372.411825-372.411824-167.062923-372.411825-372.411825-372.411825z"  ></path>
    </svg>