<?xml version="1.0" standalone="no"?>
    <svg xmlns="http://www.w3.org/2000/svg" class="icon" viewBox="0 0 1024 1024">
      <path d="M951.276698 211.854059H714.742541V97.8117c0-18.677385-15.113209-33.790594-33.790594-33.790594H343.04703c-18.677385 0-33.790594 15.113209-33.790594 33.790594v114.043382H72.723302v67.581188h101.371782v646.243447c0 18.677385 15.113209 33.790594 33.790594 33.790594h608.229668c18.677385 0 33.790594-15.113209 33.790594-33.790594V279.435247h101.371782v-67.581188z m-574.439074-80.251765h270.323729v80.252788H376.837624v-80.252788z m405.486105 760.286829H241.675248V279.435247h540.648481v612.453876z"  ></path><path d="M343.04703 452.612425h67.581188v236.533134H343.04703zM613.371782 452.612425h67.581188v236.533134h-67.581188z"  ></path>
    </svg>