<?xml version="1.0" standalone="no"?>
    <svg xmlns="http://www.w3.org/2000/svg" class="icon" viewBox="0 0 1024 1024">
      <path d="M918.727375 814.103526c22.481014 0 40.703027 18.226107 40.703027 40.702004 0 22.481014-18.222013 40.703027-40.703027 40.703027H233.218646c-93.520977 0-169.236426-76.159564-169.236426-169.987532V122.168434c0-22.481014 18.222013-40.703027 40.703027-40.703028 22.474874 0 40.702004 18.222013 40.702004 40.703028v603.347474c0 48.980551 39.375799 88.587618 87.831395 88.587618h685.508729z"  ></path><path d="M255.893065 744.634338c-15.19712 0-29.798676-8.484232-36.895305-23.068392-9.907651-20.3597-1.433652-44.896536 18.926048-54.804186l262.883269-127.921462a40.998763 40.998763 0 0 1 37.046754 0.592495l112.88193 59.463299 249.376651-123.869168c20.279882-10.072403 44.88221-1.799996 54.956659 18.479886 10.072403 20.277836 1.798972 44.883233-18.479886 54.95666L668.426679 681.665191a40.992623 40.992623 0 0 1-37.346583-0.446162l-113.067149-59.561537-244.211001 118.834502a40.829917 40.829917 0 0 1-17.908881 4.142344zM255.896134 488.785276c-12.598946 0-25.028023-5.785773-33.064046-16.714684-13.412474-18.24248-9.497305-43.903929 8.745175-57.316403l268.164552-197.162452c16.319687-11.997242 38.954197-10.281157 53.275367 4.041036l106.300025 106.297978 234.437403-175.827541c18.113543-13.58746 43.810808-9.91379 57.396222 8.199753 13.585413 18.114566 9.914814 43.811832-8.199753 57.397244L680.068833 414.861636c-16.324804 12.239765-39.162952 10.618848-53.589522-3.808746L519.939833 304.514435l-239.791342 176.301332a40.819684 40.819684 0 0 1-24.252357 7.969509z"  ></path>
    </svg>