<?xml version="1.0" standalone="no"?>
    <svg xmlns="http://www.w3.org/2000/svg" class="icon" viewBox="0 0 1024 1024">
      <path d="M834.81729 831.459822s-17.596773-5.490038-22.418592-11.025101c-3.232624-3.671623-4.199649-15.782451-0.12996-23.712051 4.072759-7.992021 36.954657-51.667753 36.954657-88.35328 0.035816-59.121516-38.052664-107.078761-85.063352-107.078761-47.211255 0-85.299735 47.957245-85.264942 107.0849 0 36.680411 32.881898 80.356143 36.954657 88.347141 4.069689 7.930623 3.104711 20.041452-0.128937 23.718191-4.821819 5.535063-22.419616 11.019984-22.419615 11.019985l-64.989154 29.555129c-15.156188 5.562692-27.061332 20.164249-27.061332 36.656875v7.829316c0 17.953907 14.370289 28.979008 31.878035 28.979008h261.860986c17.509792 0 31.878035-11.025101 31.878035-28.984125v-7.829316c0-16.492626-11.904121-31.089066-27.060309-36.651758l-64.990177-29.556153z"  ></path><path d="M163.476235 859.975273V163.515121h217.473033l149.949151 149.948127 29.14069 29.141714h299.897278v169.140235h99.494015V243.110947H601.25072L422.160879 64.021106H63.981197v895.448182h358.179682v-99.494015z"  ></path>
    </svg>