<?xml version="1.0" standalone="no"?>
    <svg xmlns="http://www.w3.org/2000/svg" class="icon" viewBox="0 0 1024 1024">
      <path d="M851.729471 810.063513c-24.434505 0-46.12655 11.736299-59.752895 29.872354L674.577772 781.038456a74.782194 74.782194 0 0 0 2.846838-20.502963 74.566276 74.566276 0 0 0-3.402493-22.355147l116.954689-58.675354c13.553691 18.907629 35.71441 31.227212 60.753689 31.227212 41.257659 0 74.698283-33.4396 74.698282-74.702376 0-41.256636-33.4396-74.696236-74.698282-74.696236-41.256636 0-74.702376 33.44574-74.702376 74.696236 0 2.858094 0.166799 5.67014 0.477884 8.445346L654.152581 706.356546c-13.393032-12.719696-31.500435-20.525476-51.43137-20.525475-41.256636 0-74.696236 33.44574-74.696236 74.703399 0 41.256636 33.440623 74.702376 74.696236 74.702375 20.659529 0 39.356356-8.383948 52.877301-21.931498l122.124432 61.265342a76.226079 76.226079 0 0 0-0.699942 10.196223c0 41.256636 33.44574 74.702376 74.702376 74.702376 41.257659 0 74.703399-33.44574 74.703399-74.702376-0.001023-41.257659-33.441647-74.703399-74.699306-74.703399z m0 0"  ></path><path d="M189.667757 800.781102V156.115594h201.299679l138.79716 138.797159 26.973328 26.974352h277.594319v156.561755h92.095511V229.791593H594.885755L429.114245 64.021106H97.572246v828.854484h331.541999V800.781102z"  ></path>
    </svg>