<?xml version="1.0" standalone="no"?>
    <svg xmlns="http://www.w3.org/2000/svg" class="icon" viewBox="0 0 1024 1024">
      <path d="M777.682012 822.721811c-22.364357 0-42.218544 10.741645-54.6906 27.341718l-107.453291-53.907771a68.435649 68.435649 0 0 0 2.605338-18.766412 68.239174 68.239174 0 0 0-3.114944-20.461007l107.046014-53.704133c12.405541 17.305131 32.688493 28.580942 55.606459 28.580942 37.762045 0 68.369134-30.607088 68.369134-68.373227 0-37.761022-30.607088-68.36811-68.369134-68.36811-37.761022 0-68.373227 30.612205-68.373227 68.36811 0 2.615571 0.152473 5.190209 0.437975 7.730055l-112.903419 56.638975c-12.258185-11.642155-28.831652-18.786878-47.074132-18.786879-37.761022 0-68.36811 30.612205-68.36811 68.374251 0 37.761022 30.607088 68.373227 68.36811 68.373227 18.909675 0 36.022425-7.673773 48.397267-20.074198l111.777782 56.075133a69.972655 69.972655 0 0 0-0.640589 9.332553c0 37.761022 30.612205 68.373227 68.373227 68.373227 37.762045 0 68.37425-30.612205 68.37425-68.373227 0.001023-37.761022-30.605042-68.373227-68.36811-68.373227z m0 0"  ></path><path d="M272.459369 804.006564V158.53162h214.198453l203.686029 196.048071v164.621315h94.510514V314.369897L524.751419 64.021106H177.947831v834.496995h172.953074v-94.511537z"  ></path>
    </svg>