<?xml version="1.0" standalone="no"?>
    <svg xmlns="http://www.w3.org/2000/svg" class="icon" viewBox="0 0 1024 1024">
      <path d="M621.349477 655.674237c-21.458731 0-40.510646 10.305717-52.480258 26.235524l-103.108333-51.729151a65.663512 65.663512 0 0 0 2.501984-18.00712 65.562205 65.562205 0 0 0-2.991124-19.633152l102.718453-51.535747c11.905144 16.60826 31.368428 27.429723 53.359278 27.429723 36.235272 0 65.608254-29.374004 65.608254-65.610301 0-36.235272-29.372981-65.608254-65.608254-65.608253s-65.608254 29.374004-65.608254 65.608253c0 2.508123 0.146333 4.980431 0.419556 7.414877l-108.337427 54.352909c-11.764951-11.172457-27.66713-18.027585-45.171806-18.027586-36.235272 0-65.608254 29.374004-65.608253 65.609277s29.374004 65.608254 65.608253 65.608254c18.143219 0 34.56319-7.361665 46.439682-19.262716l107.258863 53.81158a66.272379 66.272379 0 0 0-0.611937 8.952906c0 36.237319 29.374004 65.6103 65.6103 65.6103 36.235272 0 65.608254-29.374004 65.608253-65.6103 0.001023-36.233226-29.369911-65.609277-65.60723-65.609277z"  ></path><path d="M282.975886 177.536462v668.927076h458.047204V350.200964L544.409131 177.536462H282.975886M170.794921 65.35652h415.878802L853.205079 299.419394v659.224086H170.796968V65.35652h-0.002047z"  ></path>
    </svg>