<?xml version="1.0" standalone="no"?>
    <svg xmlns="http://www.w3.org/2000/svg" class="icon" viewBox="0 0 1024 1024">
      <path d="M747.109716 843.351664s-15.997346-4.990664-20.380167-10.023285c-2.938935-3.337002-3.817955-14.347776-0.11768-21.556968 3.703345-7.265474 33.595142-46.970778 33.595143-80.32135 0.031722-53.747111-34.593889-97.344049-77.330226-97.344049-42.919509 0-77.54512 43.596937-77.513398 97.349165 0 33.345456 29.892821 73.05076 33.595142 80.316234 3.700275 7.209192 2.822278 18.218944-0.116657 21.562085-4.383844 5.031597-20.38119 10.018168-20.381189 10.018168l-59.081607 26.86895c-13.778818 5.057179-24.601304 18.331507-24.601304 33.32499v7.118118c0 16.321734 13.063527 26.345018 28.980031 26.345018h238.054791c15.917528 0 28.980032-10.023284 28.980032-26.349111v-7.118118c0-14.993482-10.821463-28.262694-24.600281-33.319873l-59.08263-26.869974z"  ></path><path d="M287.796682 858.310354V165.689646h229.842758l218.563878 210.367195v176.645163h101.413738V332.910159L558.51643 64.275909H186.381921v895.448182h185.585789v-101.413737z"  ></path>
    </svg>