<?xml version="1.0" standalone="no"?>
    <svg xmlns="http://www.w3.org/2000/svg" class="icon" viewBox="0 0 1024 1024">
      <path d="M510.253216 64.164369c-246.948345 0-447.139783 200.191438-447.139783 447.139783s200.191438 447.139783 447.139783 447.139783S957.393 758.252497 957.393 511.304152 757.202585 64.164369 510.253216 64.164369z m148.315954 560.324611c9.700943 9.700943 9.700943 25.429159 0 35.130102-9.700943 9.700943-25.429159 9.700943-35.130102 0L518.046716 554.227754 412.654364 659.619082c-9.700943 9.700943-25.429159 9.700943-35.131125 0-9.700943-9.700943-9.700943-25.429159 0-35.130102l105.391329-105.391328-105.390305-105.392352c-9.700943-9.700943-9.700943-25.429159 0-35.131125 9.700943-9.700943 25.429159-9.700943 35.131125 0L518.046716 483.965503l105.391329-105.391328c9.700943-9.700943 25.429159-9.700943 35.130102 0 9.700943 9.700943 9.700943 25.429159 0 35.131125L553.176818 519.097652l105.392352 105.391328z"  ></path>
    </svg>