<?xml version="1.0" standalone="no"?>
    <svg xmlns="http://www.w3.org/2000/svg" class="icon" viewBox="0 0 1024 1024">
      <path d="M443.454858 481.712183H102.199637c-21.107737 0-38.21844-17.110703-38.21844-38.21844V102.239546c0-21.107737 17.110703-38.21844 38.21844-38.21844H358.140797c21.107737 0 38.21844 17.110703 38.218439 38.21844s-17.110703 38.21844-38.218439 38.218439H140.418077v264.818342h264.818341V358.180705c0-21.107737 17.110703-38.21844 38.21844-38.218439s38.21844 17.110703 38.21844 38.218439v85.314062c0 21.106714-17.110703 38.217417-38.21844 38.217416zM443.454858 959.469288H102.199637c-21.107737 0-38.21844-17.110703-38.21844-38.21844V579.99665c0-21.107737 17.110703-38.21844 38.21844-38.21844h341.255221c21.107737 0 38.21844 17.110703 38.21844 38.21844v341.255221c0 21.106714-17.110703 38.217417-38.21844 38.217417z m-303.036781-76.435857h264.818341V618.214067H140.418077v264.819364zM921.211962 208.708416H579.956741c-21.107737 0-38.21844-17.110703-38.21844-38.21844s17.110703-38.21844 38.21844-38.21844h341.255221c21.107737 0 38.21844 17.110703 38.21844 38.21844s-17.110703 38.21844-38.21844 38.21844zM921.211962 413.461753H579.956741c-21.107737 0-38.21844-17.110703-38.21844-38.21844s17.110703-38.21844 38.21844-38.21844h341.255221c21.107737 0 38.21844 17.110703 38.21844 38.21844s-17.110703 38.21844-38.21844 38.21844zM921.211962 686.46552H579.956741c-21.107737 0-38.21844-17.110703-38.21844-38.21844s17.110703-38.21844 38.21844-38.218439h341.255221c21.107737 0 38.21844 17.110703 38.21844 38.218439s-17.110703 38.21844-38.21844 38.21844zM921.211962 891.218858H579.956741c-21.107737 0-38.21844-17.110703-38.21844-38.21844s17.110703-38.21844 38.21844-38.21844h341.255221c21.107737 0 38.21844 17.110703 38.21844 38.21844s-17.110703 38.21844-38.21844 38.21844z"  ></path><path d="M294.475801 362.944196c-9.781784 0-19.560498-3.730974-27.024493-11.193947l-85.314061-85.314061c-14.924921-14.924921-14.924921-39.123043 0-54.047963 14.924921-14.925944 39.123043-14.925944 54.047963 0l58.289568 58.289567 143.603629-143.602605c14.924921-14.925944 39.123043-14.925944 54.048987 0 14.924921 14.924921 14.924921 39.123043-0.001024 54.048987l-170.627099 170.626075c-7.460925 7.460925-17.243733 11.193947-27.02347 11.193947z"  ></path>
    </svg>