<?xml version="1.0" standalone="no"?>
    <svg xmlns="http://www.w3.org/2000/svg" class="icon" viewBox="0 0 1024 1024">
      <path d="M897.239991 829.932026c21.931498 0 39.711444 17.779945 39.711444 39.711444 0 21.931498-17.779945 39.711444-39.711444 39.711443H228.414223c-91.243097 0-165.116595-74.30738-165.116595-165.853375V154.836461c0-21.931498 17.779945-39.711444 39.711444-39.711444s39.711444 17.779945 39.711443 39.711444v588.664054c0 47.786353 38.417985 86.430488 85.693708 86.430488h668.825768z m-97.287767-573.020772l-64.363913-37.160341c-9.497305-5.482875-12.750395-17.626449-7.26752-27.123754a19.84907 19.84907 0 0 1 12.056593-9.250688l151.505599-40.59558c10.592242-2.838651 21.48022 3.447519 24.318872 14.039761l40.59558 151.505599c2.838651 10.592242-3.447519 21.48022-14.040784 24.318872a19.860327 19.860327 0 0 1-15.06716-1.983168L868.883153 296.710702c-46.633087 94.229105-96.380094 168.687934-149.631925 223.378533-47.193859 48.468898-103.83488 56.243979-178.63754 39.385009-12.499685-2.817162-23.685445-5.77247-42.921555-11.156084-45.475727-12.726859-61.220317-16.22145-78.358649-16.22145-31.352055 0-82.84687 64.116273-140.949173 196.996677-8.786107 20.094664-32.199353 29.262464-52.29504 20.475333-20.094664-8.786107-29.262464-32.199353-20.475333-52.29504 70.624501-161.517627 137.353274-244.600881 213.720569-244.60088 27.38572 0 46.302559 4.197602 99.764168 19.160385 17.999956 5.037736 28.170596 7.724938 38.977733 10.160407 50.653657 11.416004 80.254835 7.353478 104.270809-17.312294 47.719838-49.009204 93.723591-118.265544 137.605007-207.770044z"  ></path>
    </svg>