<?xml version="1.0" standalone="no"?>
    <svg xmlns="http://www.w3.org/2000/svg" class="icon" viewBox="0 0 1024 1024">
      <path d="M490.641553 668.844188l-96.973612-48.682769a168.301124 168.301124 0 0 0 6.39771-46.113248 167.80482 167.80482 0 0 0-7.64819-50.278103l262.863826-131.966591c30.465872 42.525536 80.274278 70.232574 136.552026 70.232575 92.730984 0 167.890778-75.209936 167.890778-168.012552 0-92.790336-75.159794-168.000272-167.890778-168.000272-92.727914 0-167.899988 75.223239-167.899988 168.000272 0 6.427386 0.37453 12.752442 1.074472 18.99461L347.759355 452.195939c-30.100552-28.607548-70.799486-46.164413-115.595738-46.164412-92.727914 0-167.887708 75.223239-167.887708 168.016644 0 92.790336 75.159794 168.013575 167.887708 168.013575 46.434565 0 88.457658-18.856463 118.845759-49.327452l103.186103 51.79976 36.446074-75.689866z" fill="#CCD4E7" ></path><path d="M714.142883 897.977795L556.528146 740.358965l48.707328-48.707329 108.907409 108.910479L896.430556 618.274442l48.708352 48.707328z" fill="#0596FF" ></path>
    </svg>