<?xml version="1.0" standalone="no"?>
    <svg xmlns="http://www.w3.org/2000/svg" class="icon" viewBox="0 0 1024 1024">
      <path d="M750.786455 229.687216h80.69588c22.283516 0 40.34794 18.064424 40.34794 40.34794V713.861474c0 22.283516-18.064424 40.34794-40.34794 40.34794h-80.69588c-22.283516 0-40.34794-18.064424-40.34794-40.34794V270.035156c0-22.283516 18.064424-40.34794 40.34794-40.34794zM508.698814 431.426917h80.69588c22.283516 0 40.34794 18.064424 40.34794 40.34794V713.861474c0 22.283516-18.064424 40.34794-40.34794 40.34794h-80.69588c-22.283516 0-40.34794-18.064424-40.34794-40.34794V471.774857c0-22.283516 18.064424-40.34794 40.34794-40.34794zM266.612197 350.731036h80.69588c22.283516 0 40.34794 18.064424 40.34794 40.34794V713.861474c0 22.283516-18.064424 40.34794-40.34794 40.34794h-80.69588c-22.283516 0-40.34794-18.064424-40.34794-40.34794V391.078976c0-22.283516 18.064424-40.34794 40.34794-40.34794z m645.564995 484.174258c22.283516 0 40.34794 18.064424 40.34794 40.34794s-18.064424 40.34794-40.34794 40.34794H232.635361c-92.705402 0-167.761841-75.498508-167.761841-168.511925V148.991336c0-22.283516 18.064424-40.34794 40.34794-40.34794s40.34794 18.064424 40.34794 40.34794V747.088226c0 48.551786 39.034015 87.816045 87.065961 87.816045h679.541831zM347.308077 552.469714V391.078976h-80.69588v161.391761h80.69588z m242.086617 40.34794V471.774857h-80.69588v121.04382h80.69588zM831.481312 471.774857V270.035156h-80.695881v201.738677h80.695881z"  ></path>
    </svg>