<?xml version="1.0" standalone="no"?>
    <svg xmlns="http://www.w3.org/2000/svg" class="icon" viewBox="0 0 1024 1024">
      <path d="M950.638155 649.764644v81.402984c0 22.481014-18.219967 40.706097-40.70098 40.706098h-652.05071c-22.475897 0-40.700981-18.225083-40.700981-40.706098v-81.402984c0-22.481014 18.225083-40.700981 40.700981-40.700981h652.05071c22.481014 0 40.700981 18.219967 40.70098 40.700981zM747.128135 405.548526v81.406055c0 22.481014-18.225083 40.702004-40.702004 40.702004H257.886465c-22.475897 0-40.700981-18.22099-40.700981-40.702004v-81.406055c0-22.476921 18.225083-40.702004 40.700981-40.702004h448.539666c22.476921 0.001023 40.702004 18.225083 40.702004 40.702004z m81.400938-244.211001v81.406055c0 22.475897-18.219967 40.702004-40.70098 40.702004H257.886465c-22.475897 0-40.700981-18.226107-40.700981-40.702004V161.337525c0-22.482037 18.225083-40.702004 40.700981-40.702004h529.942651c22.479991 0 40.699957 18.219967 40.699957 40.702004z m90.200348 676.278507c22.475897 0 40.700981 18.225083 40.700981 40.706098 0 22.475897-18.225083 40.700981-40.700981 40.70098H233.218646c-93.51893 0-169.237449-76.160587-169.237449-169.990602V145.676847c0-22.475897 18.225083-40.700981 40.70098-40.700981 22.481014 0 40.707121 18.225083 40.707121 40.700981V749.032508c0 48.975435 39.375799 88.583524 87.829348 88.583524h685.510775zM574.580291 242.74358h213.247802V161.337525H574.580291v81.406055z m-40.702004 244.212024h172.547844V405.549549H533.878287v81.406055z m122.109082 244.211001h253.949806v-81.402985H655.987369v81.402985z m-88.26937 0"  ></path>
    </svg>