<?xml version="1.0" standalone="no"?>
    <svg xmlns="http://www.w3.org/2000/svg" class="icon" viewBox="0 0 1024 1024">
      <path d="M918.729421 837.616032c22.475897 0 40.700981 18.225083 40.700981 40.706098 0 22.475897-18.225083 40.700981-40.700981 40.70098H233.218646c-93.51893 0-169.237449-76.160587-169.237449-169.990602V145.676847c0-22.475897 18.225083-40.700981 40.70098-40.700981 22.481014 0 40.707121 18.225083 40.707121 40.700981V749.032508c0 48.975435 39.375799 88.583524 87.829348 88.583524h685.510775z"  ></path><path d="M909.937175 609.063663h-652.05071c-22.475897 0-40.700981 18.219967-40.700981 40.700981v81.402984c0 22.481014 18.225083 40.706097 40.700981 40.706098h652.05071c22.481014 0 40.700981-18.225083 40.70098-40.706098v-81.402984c0-22.481014-18.219967-40.700981-40.70098-40.700981zM257.886465 527.657608h448.539666c22.476921 0 40.702004-18.22099 40.702004-40.702004V405.549549c0-22.476921-18.225083-40.702004-40.702004-40.702004H257.886465c-22.475897 0-40.700981 18.225083-40.700981 40.702004v81.406055c0 22.481014 18.225083 40.702004 40.700981 40.702004zM257.886465 283.445584h529.942651c22.481014 0 40.700981-18.226107 40.700981-40.702004V161.337525c0-22.482037-18.219967-40.702004-40.700981-40.702004H257.886465c-22.475897 0-40.700981 18.219967-40.700981 40.702004v81.406055c0 22.475897 18.225083 40.702004 40.700981 40.702004z"  ></path>
    </svg>