<?xml version="1.0" standalone="no"?>
    <svg xmlns="http://www.w3.org/2000/svg" class="icon" viewBox="0 0 1024 1024">
      <path d="M876.176256 183.590342h40.651863c22.451338 0 40.651862 18.200524 40.651862 40.651862v487.817228c0 22.451338-18.200524 40.651862-40.651862 40.651862h-40.651863c-22.451338 0-40.651862-18.200524-40.651862-40.651862V224.24118c0-22.450315 18.200524-40.650839 40.651862-40.650838zM672.918993 386.847605h40.651862c22.451338 0 40.651862 18.200524 40.651862 40.651862v284.559965c0 22.451338-18.200524 40.651862-40.651862 40.651862h-40.651862c-22.451338 0-40.651862-18.200524-40.651862-40.651862v-284.560988c0-22.450315 18.200524-40.650839 40.651862-40.650839zM469.661729 508.802168h40.651862c22.451338 0 40.651862 18.200524 40.651862 40.651862v162.605402c0 22.451338-18.200524 40.651862-40.651862 40.651862h-40.651862c-22.451338 0-40.651862-18.200524-40.651862-40.651862V549.453007c0-22.451338 18.200524-40.650839 40.651862-40.650839zM266.404466 305.544905h40.651862c22.451338 0 40.651862 18.200524 40.651862 40.651862v365.862665c0 22.451338-18.200524 40.651862-40.651862 40.651862h-40.651862c-22.451338 0-40.651862-18.200524-40.651862-40.651862v-365.862665c0-22.452361 18.200524-40.651862 40.651862-40.651862z m650.422629 528.468066c22.451338 0 40.651862 18.200524 40.651862 40.651862 0 22.451338-18.200524 40.651862-40.651862 40.651862H232.17078c-93.403297 0-169.024601-76.066443-169.024601-169.779801V142.93848c0-22.451338 18.200524-40.651862 40.651862-40.651862s40.651862 18.200524 40.651862 40.651862v602.598414c0 48.917106 39.327704 88.477101 87.721901 88.477101h684.655291z"  ></path>
    </svg>